<?xml version="1.0" encoding="iso-8859-1"?>
<!-- Generator: Adobe Illustrator 17.0.0, SVG Export Plug-In . SVG Version: 6.00 Build 0)  -->
<!DOCTYPE svg PUBLIC "-//W3C//DTD SVG 1.1//EN" "http://www.w3.org/Graphics/SVG/1.1/DTD/svg11.dtd">
<svg version="1.1" id="Ebene_1" xmlns="http://www.w3.org/2000/svg" xmlns:xlink="http://www.w3.org/1999/xlink" x="0px" y="0px"
	 width="503.923px" height="147.78px" viewBox="0 0 503.923 147.78" style="enable-background:new 0 0 503.923 147.78;"
	 xml:space="preserve">
<g id="Ebene_2">
	<g>
		<polygon style="fill:#333333;" points="0,0.736 20.252,0.736 84.512,104.877 84.901,104.877 84.901,147.229 21.872,43.088 
			21.482,43.088 21.482,147.229 0,147.229 		"/>
	</g>
	<g>
		<path style="fill:#333333;" d="M127.867,126.339h25.725c12.082,0,20.852-4.262,26.309-12.787c2.404-3.153,3.93-7.147,4.58-11.981
			c0.584-4.767,0.877-13.692,0.877-26.783c0-12.752-0.293-21.881-0.877-27.387c-0.779-5.504-2.629-9.967-5.553-13.39
			c-5.979-8.525-14.423-12.652-25.335-12.385h-25.725V0.736h28.166c19.21,0.135,33.619,8.374,43.225,24.717
			c3.435,5.493,5.606,11.253,6.514,17.282c0.712,6.028,1.069,16.445,1.069,31.248c0,15.741-0.553,26.726-1.655,32.955
			c-0.52,3.149-1.298,5.963-2.336,8.44c-1.104,2.411-2.433,4.923-3.991,7.535c-4.154,6.9-9.93,12.595-17.327,17.081
			c-7.333,4.823-16.321,7.234-26.963,7.234h-26.702v-20.889H127.867z"/>
	</g>
	<g>
		<path style="fill:#333333;" d="M278.057,80.473h22.625c8.753,0.062,15.32,3.816,19.698,11.264
			c1.564,2.503,2.555,5.128,2.968,7.875c0.325,2.747,0.487,7.494,0.487,14.24c0,7.173-0.252,12.179-0.754,15.018
			c-0.237,1.435-0.592,2.717-1.064,3.846c-0.503,1.1-1.109,2.244-1.818,3.435c-1.894,3.144-4.525,5.739-7.896,7.783
			c-3.342,2.198-7.438,3.297-12.287,3.297h-21.958V80.473H278.057z M287.846,137.71h11.723c5.506,0,9.502-1.942,11.989-5.827
			c1.095-1.437,1.791-3.257,2.087-5.46c0.266-2.172,0.4-6.239,0.4-12.205c0-5.811-0.134-9.971-0.4-12.48
			c-0.355-2.508-1.199-4.542-2.531-6.102c-2.724-3.885-6.572-5.766-11.545-5.644h-11.723V137.71z"/>
		<path style="fill:#333333;" d="M337.121,80.473h9.79v66.757h-9.79V80.473z"/>
		<path style="fill:#333333;" d="M361.296,80.473h41.308v9.52h-31.518v19.742h26.904v8.966h-26.904v28.529h-9.79V80.473z"/>
		<path style="fill:#333333;" d="M411.662,80.473h41.308v9.52h-31.518v19.742h26.904v8.966h-26.904v28.529h-9.79L411.662,80.473
			L411.662,80.473z"/>
		<path style="fill:#333333;" d="M462.828,131.057c5.148,4.375,11.273,6.593,18.376,6.653c8.402-0.121,12.664-3.223,12.782-9.303
			c0.062-4.979-2.748-7.973-8.428-8.981c-2.603-0.366-5.457-0.779-8.562-1.238c-5.561-0.946-9.789-3.069-12.687-6.369
			c-2.987-3.391-4.48-7.516-4.48-12.373c0-5.835,1.876-10.54,5.627-14.114c3.633-3.544,8.788-5.347,15.464-5.408
			c8.035,0.184,15.021,2.482,20.959,6.896l-5.458,8.312c-4.852-3.303-10.191-5.016-16.02-5.139c-3.018,0-5.531,0.779-7.543,2.337
			c-2.101,1.62-3.181,4.033-3.239,7.241c0,1.924,0.724,3.665,2.173,5.224c1.449,1.589,3.771,2.688,6.965,3.3
			c1.774,0.305,4.198,0.656,7.274,1.054c6.062,0.855,10.543,3.102,13.441,6.736c2.868,3.575,4.303,7.729,4.303,12.465
			c-0.325,12.771-7.888,19.247-22.689,19.431c-9.572,0-17.8-3.037-24.684-9.112L462.828,131.057z"/>
	</g>
	<g>
		<path style="fill:#333333;" d="M278.009,0.526h8.832l28.024,45.416h0.17V0.526h9.368v63.886h-8.874l-27.981-45.416h-0.17v45.416
			h-9.369L278.009,0.526L278.009,0.526z"/>
		<path style="fill:#333333;" d="M339.397,0.526h39.53v9.11h-30.162v18.28h25.747v8.58h-25.747v18.806h30.162v9.11h-39.53V0.526z"/>
		<path style="fill:#333333;" d="M383.74,0.526h9.889l9.718,45.416h0.17l12.01-45.416h6.791l11.967,45.416h0.17l9.761-45.416h9.888
			l-15.447,63.886h-7.851l-11.798-46.075h-0.17l-11.84,46.075h-7.809L383.74,0.526z"/>
		<path style="fill:#333333;" d="M464.736,48.935c4.927,4.187,10.789,6.309,17.585,6.367c8.042-0.116,12.12-3.084,12.233-8.902
			c0.059-4.765-2.63-7.63-8.065-8.596c-2.491-0.351-5.222-0.746-8.193-1.185c-5.321-0.906-9.368-2.938-12.141-6.095
			c-2.859-3.246-4.288-7.192-4.288-11.841c0-5.584,1.795-10.087,5.386-13.507c3.477-3.392,8.409-5.116,14.798-5.175
			c7.689,0.175,14.375,2.375,20.058,6.6l-5.223,7.954c-4.644-3.161-9.754-4.8-15.331-4.918c-2.888,0-5.294,0.746-7.219,2.237
			c-2.01,1.55-3.044,3.859-3.1,6.929c0,1.842,0.692,3.508,2.079,5c1.388,1.521,3.609,2.573,6.665,3.158
			c1.698,0.292,4.019,0.628,6.963,1.008c5.802,0.819,10.089,2.968,12.862,6.447c2.745,3.421,4.118,7.397,4.118,11.928
			c-0.312,12.222-7.549,18.42-21.714,18.595c-9.16,0-17.034-2.906-23.622-8.72L464.736,48.935z"/>
	</g>
</g>
<g id="Ebene_3">
	<rect x="84.901" y="0.736" style="fill:#65CA28;" width="21.483" height="146.493"/>
	<rect x="106.384" y="0.736" style="fill:#FF0025;" width="21.482" height="146.493"/>
</g>
</svg>
